<svg xmlns="http://www.w3.org/2000/svg" xmlns:xlink="http://www.w3.org/1999/xlink" width="512" zoomAndPan="magnify" viewBox="0 0 375 374.999986" height="512" preserveAspectRatio="xMidYMid meet" version="1.0"><defs><g/><clipPath id="e028dd150d"><path d="M 54.726562 157.785156 L 131.433594 157.785156 L 131.433594 234.488281 L 54.726562 234.488281 Z M 54.726562 157.785156 " clip-rule="nonzero"/></clipPath><clipPath id="a8f9ab337b"><path d="M 72.726562 157.785156 L 113.433594 157.785156 C 123.375 157.785156 131.433594 165.84375 131.433594 175.785156 L 131.433594 216.488281 C 131.433594 226.429688 123.375 234.488281 113.433594 234.488281 L 72.726562 234.488281 C 62.789062 234.488281 54.726562 226.429688 54.726562 216.488281 L 54.726562 175.785156 C 54.726562 165.84375 62.789062 157.785156 72.726562 157.785156 Z M 72.726562 157.785156 " clip-rule="nonzero"/></clipPath><clipPath id="a80aed9aa8"><path d="M 0.726562 0.785156 L 77.433594 0.785156 L 77.433594 77.488281 L 0.726562 77.488281 Z M 0.726562 0.785156 " clip-rule="nonzero"/></clipPath><clipPath id="f1cbfa9244"><path d="M 18.726562 0.785156 L 59.433594 0.785156 C 69.375 0.785156 77.433594 8.84375 77.433594 18.785156 L 77.433594 59.488281 C 77.433594 69.429688 69.375 77.488281 59.433594 77.488281 L 18.726562 77.488281 C 8.789062 77.488281 0.726562 69.429688 0.726562 59.488281 L 0.726562 18.785156 C 0.726562 8.84375 8.789062 0.785156 18.726562 0.785156 Z M 18.726562 0.785156 " clip-rule="nonzero"/></clipPath><clipPath id="0da8b45282"><rect x="0" width="78" y="0" height="78"/></clipPath><clipPath id="0ae63e7157"><path d="M 54.726562 157.785156 L 131.226562 157.785156 L 131.226562 234.285156 L 54.726562 234.285156 Z M 54.726562 157.785156 " clip-rule="nonzero"/></clipPath><clipPath id="a7660e7e0d"><path d="M 72.726562 157.785156 L 113.429688 157.785156 C 123.371094 157.785156 131.425781 165.84375 131.425781 175.78125 L 131.425781 216.484375 C 131.425781 226.425781 123.371094 234.484375 113.429688 234.484375 L 72.726562 234.484375 C 62.785156 234.484375 54.726562 226.425781 54.726562 216.484375 L 54.726562 175.78125 C 54.726562 165.84375 62.785156 157.785156 72.726562 157.785156 Z M 72.726562 157.785156 " clip-rule="nonzero"/></clipPath><clipPath id="8af96c0976"><path d="M 58.859375 153.71875 L 135.566406 153.71875 L 135.566406 230.421875 L 58.859375 230.421875 Z M 58.859375 153.71875 " clip-rule="nonzero"/></clipPath><clipPath id="be50d80569"><path d="M 76.859375 153.71875 L 117.566406 153.71875 C 127.503906 153.71875 135.566406 161.777344 135.566406 171.71875 L 135.566406 212.421875 C 135.566406 222.363281 127.503906 230.421875 117.566406 230.421875 L 76.859375 230.421875 C 66.917969 230.421875 58.859375 222.363281 58.859375 212.421875 L 58.859375 171.71875 C 58.859375 161.777344 66.917969 153.71875 76.859375 153.71875 Z M 76.859375 153.71875 " clip-rule="nonzero"/></clipPath><clipPath id="8c2031cac9"><path d="M 0.859375 0.71875 L 77.566406 0.71875 L 77.566406 77.421875 L 0.859375 77.421875 Z M 0.859375 0.71875 " clip-rule="nonzero"/></clipPath><clipPath id="256fbbd733"><path d="M 18.859375 0.71875 L 59.566406 0.71875 C 69.503906 0.71875 77.566406 8.777344 77.566406 18.71875 L 77.566406 59.421875 C 77.566406 69.363281 69.503906 77.421875 59.566406 77.421875 L 18.859375 77.421875 C 8.917969 77.421875 0.859375 69.363281 0.859375 59.421875 L 0.859375 18.71875 C 0.859375 8.777344 8.917969 0.71875 18.859375 0.71875 Z M 18.859375 0.71875 " clip-rule="nonzero"/></clipPath><clipPath id="17b69a9e5b"><rect x="0" width="78" y="0" height="78"/></clipPath><clipPath id="cf69c9d571"><path d="M 58.859375 153.71875 L 135.359375 153.71875 L 135.359375 230.21875 L 58.859375 230.21875 Z M 58.859375 153.71875 " clip-rule="nonzero"/></clipPath><clipPath id="32de70bf66"><path d="M 76.859375 153.71875 L 117.558594 153.71875 C 127.5 153.71875 135.558594 161.777344 135.558594 171.714844 L 135.558594 212.417969 C 135.558594 222.359375 127.5 230.417969 117.558594 230.417969 L 76.859375 230.417969 C 66.917969 230.417969 58.859375 222.359375 58.859375 212.417969 L 58.859375 171.714844 C 58.859375 161.777344 66.917969 153.71875 76.859375 153.71875 Z M 76.859375 153.71875 " clip-rule="nonzero"/></clipPath><clipPath id="928e582897"><path d="M 62.847656 149.511719 L 139.554688 149.511719 L 139.554688 226.214844 L 62.847656 226.214844 Z M 62.847656 149.511719 " clip-rule="nonzero"/></clipPath><clipPath id="b9b16c547a"><path d="M 80.847656 149.511719 L 121.554688 149.511719 C 131.496094 149.511719 139.554688 157.570312 139.554688 167.511719 L 139.554688 208.214844 C 139.554688 218.15625 131.496094 226.214844 121.554688 226.214844 L 80.847656 226.214844 C 70.90625 226.214844 62.847656 218.15625 62.847656 208.214844 L 62.847656 167.511719 C 62.847656 157.570312 70.90625 149.511719 80.847656 149.511719 Z M 80.847656 149.511719 " clip-rule="nonzero"/></clipPath><clipPath id="ef2ca492bd"><path d="M 0.847656 0.511719 L 77.554688 0.511719 L 77.554688 77.214844 L 0.847656 77.214844 Z M 0.847656 0.511719 " clip-rule="nonzero"/></clipPath><clipPath id="7958159d72"><path d="M 18.847656 0.511719 L 59.554688 0.511719 C 69.496094 0.511719 77.554688 8.570312 77.554688 18.511719 L 77.554688 59.214844 C 77.554688 69.15625 69.496094 77.214844 59.554688 77.214844 L 18.847656 77.214844 C 8.90625 77.214844 0.847656 69.15625 0.847656 59.214844 L 0.847656 18.511719 C 0.847656 8.570312 8.90625 0.511719 18.847656 0.511719 Z M 18.847656 0.511719 " clip-rule="nonzero"/></clipPath><clipPath id="438a95572c"><rect x="0" width="78" y="0" height="78"/></clipPath><clipPath id="82cac33cff"><path d="M 62.847656 149.511719 L 139.347656 149.511719 L 139.347656 226.011719 L 62.847656 226.011719 Z M 62.847656 149.511719 " clip-rule="nonzero"/></clipPath><clipPath id="347a04c3e6"><path d="M 80.847656 149.511719 L 121.550781 149.511719 C 131.488281 149.511719 139.546875 157.570312 139.546875 167.507812 L 139.546875 208.210938 C 139.546875 218.152344 131.488281 226.210938 121.550781 226.210938 L 80.847656 226.210938 C 70.90625 226.210938 62.847656 218.152344 62.847656 208.210938 L 62.847656 167.507812 C 62.847656 157.570312 70.90625 149.511719 80.847656 149.511719 Z M 80.847656 149.511719 " clip-rule="nonzero"/></clipPath><clipPath id="cf8ccb0642"><path d="M 75.144531 164.363281 L 127.246094 164.363281 L 127.246094 214.019531 L 75.144531 214.019531 Z M 75.144531 164.363281 " clip-rule="nonzero"/></clipPath><clipPath id="76808b1121"><path d="M 119.972656 177.964844 C 119.042969 179.242188 118.777344 180.886719 119.265625 182.386719 C 119.75 183.886719 120.925781 185.066406 122.429688 185.554688 L 122.433594 185.554688 C 126.003906 186.71875 127.957031 190.550781 126.804688 194.125 L 125.34375 198.628906 C 124.789062 200.34375 123.578125 201.765625 121.972656 202.585938 C 120.367188 203.402344 118.503906 203.550781 116.792969 202.992188 L 116.570312 202.921875 C 115.121094 202.449219 113.53125 202.699219 112.296875 203.597656 C 111.0625 204.492188 110.328125 205.925781 110.328125 207.453125 C 110.328125 211.078125 107.390625 214.019531 103.765625 214.019531 L 98.636719 214.019531 C 95.011719 214.019531 92.074219 211.078125 92.074219 207.453125 C 92.074219 205.925781 91.34375 204.492188 90.105469 203.597656 C 88.871094 202.699219 87.28125 202.449219 85.832031 202.921875 L 85.613281 202.992188 C 83.898438 203.550781 82.035156 203.402344 80.429688 202.585938 C 78.824219 201.765625 77.613281 200.34375 77.058594 198.628906 L 75.601562 194.125 C 74.445312 190.550781 76.398438 186.71875 79.96875 185.554688 L 79.972656 185.554688 C 81.476562 185.066406 82.652344 183.886719 83.136719 182.386719 C 83.625 180.886719 83.363281 179.242188 82.433594 177.964844 C 80.222656 174.933594 80.886719 170.6875 83.917969 168.476562 L 87.714844 165.710938 C 89.167969 164.648438 90.988281 164.210938 92.765625 164.488281 C 94.546875 164.765625 96.140625 165.742188 97.203125 167.195312 C 98.132812 168.472656 99.621094 169.230469 101.203125 169.230469 C 102.785156 169.230469 104.269531 168.472656 105.203125 167.195312 C 106.261719 165.742188 107.859375 164.765625 109.636719 164.488281 C 111.417969 164.210938 113.234375 164.648438 114.6875 165.710938 L 118.484375 168.476562 C 121.515625 170.6875 122.179688 174.933594 119.972656 177.964844 Z M 119.972656 177.964844 " clip-rule="nonzero"/></clipPath><clipPath id="9c564306ae"><path d="M 0.144531 0.363281 L 52.246094 0.363281 L 52.246094 50.019531 L 0.144531 50.019531 Z M 0.144531 0.363281 " clip-rule="nonzero"/></clipPath><clipPath id="a297f41184"><path d="M 44.972656 13.964844 C 44.042969 15.242188 43.777344 16.886719 44.265625 18.386719 C 44.75 19.886719 45.925781 21.066406 47.429688 21.554688 L 47.433594 21.554688 C 51.003906 22.71875 52.957031 26.550781 51.804688 30.125 L 50.34375 34.628906 C 49.789062 36.34375 48.578125 37.765625 46.972656 38.585938 C 45.367188 39.402344 43.503906 39.550781 41.792969 38.992188 L 41.570312 38.921875 C 40.121094 38.449219 38.53125 38.699219 37.296875 39.597656 C 36.0625 40.492188 35.328125 41.925781 35.328125 43.453125 C 35.328125 47.078125 32.390625 50.019531 28.765625 50.019531 L 23.636719 50.019531 C 20.011719 50.019531 17.074219 47.078125 17.074219 43.453125 C 17.074219 41.925781 16.34375 40.492188 15.105469 39.597656 C 13.871094 38.699219 12.28125 38.449219 10.832031 38.921875 L 10.613281 38.992188 C 8.898438 39.550781 7.035156 39.402344 5.429688 38.585938 C 3.824219 37.765625 2.613281 36.34375 2.058594 34.628906 L 0.601562 30.125 C -0.554688 26.550781 1.398438 22.71875 4.96875 21.554688 L 4.972656 21.554688 C 6.476562 21.066406 7.652344 19.886719 8.136719 18.386719 C 8.625 16.886719 8.363281 15.242188 7.433594 13.964844 C 5.222656 10.933594 5.886719 6.6875 8.917969 4.476562 L 12.714844 1.710938 C 14.167969 0.648438 15.988281 0.210938 17.765625 0.488281 C 19.546875 0.765625 21.140625 1.742188 22.203125 3.195312 C 23.132812 4.472656 24.621094 5.230469 26.203125 5.230469 C 27.785156 5.230469 29.269531 4.472656 30.203125 3.195312 C 31.261719 1.742188 32.859375 0.765625 34.636719 0.488281 C 36.417969 0.210938 38.234375 0.648438 39.6875 1.710938 L 43.484375 4.476562 C 46.515625 6.6875 47.179688 10.933594 44.972656 13.964844 Z M 44.972656 13.964844 " clip-rule="nonzero"/></clipPath><clipPath id="12eba5e844"><rect x="0" width="53" y="0" height="51"/></clipPath><clipPath id="53689bf2be"><rect x="0" width="180" y="0" height="44"/></clipPath></defs><g clip-path="url(#e028dd150d)"><g clip-path="url(#a8f9ab337b)"><g transform="matrix(1, 0, 0, 1, 54, 157)"><g clip-path="url(#0da8b45282)"><g clip-path="url(#a80aed9aa8)"><g clip-path="url(#f1cbfa9244)"><path fill="#234fd7" d="M 0.726562 0.785156 L 77.433594 0.785156 L 77.433594 77.488281 L 0.726562 77.488281 Z M 0.726562 0.785156 " fill-opacity="1" fill-rule="nonzero"/></g></g></g></g></g></g><g clip-path="url(#0ae63e7157)"><g clip-path="url(#a7660e7e0d)"><path stroke-linecap="butt" transform="matrix(0.75, 0, 0, 0.75, 54.728448, 157.783831)" fill="none" stroke-linejoin="miter" d="M 23.997488 0.00176735 L 78.268325 0.00176735 C 91.523535 0.00176735 102.263119 10.74656 102.263119 23.996561 L 102.263119 78.267399 C 102.263119 91.522608 91.523535 102.2674 78.268325 102.2674 L 23.997488 102.2674 C 10.742278 102.2674 -0.00251437 91.522608 -0.00251437 78.267399 L -0.00251437 23.996561 C -0.00251437 10.74656 10.742278 0.00176735 23.997488 0.00176735 Z M 23.997488 0.00176735 " stroke="#ffffff" stroke-width="4" stroke-opacity="1" stroke-miterlimit="4"/></g></g><g clip-path="url(#8af96c0976)"><g clip-path="url(#be50d80569)"><g transform="matrix(1, 0, 0, 1, 58, 153)"><g clip-path="url(#17b69a9e5b)"><g clip-path="url(#8c2031cac9)"><g clip-path="url(#256fbbd733)"><path fill="#234fd7" d="M 0.859375 0.71875 L 77.566406 0.71875 L 77.566406 77.421875 L 0.859375 77.421875 Z M 0.859375 0.71875 " fill-opacity="1" fill-rule="nonzero"/></g></g></g></g></g></g><g clip-path="url(#cf69c9d571)"><g clip-path="url(#32de70bf66)"><path stroke-linecap="butt" transform="matrix(0.75, 0, 0, 0.75, 58.859134, 153.717789)" fill="none" stroke-linejoin="miter" d="M 24.000324 0.00128073 L 78.265953 0.00128073 C 91.521162 0.00128073 102.265955 10.746073 102.265955 23.996074 L 102.265955 78.266912 C 102.265955 91.522121 91.521162 102.266914 78.265953 102.266914 L 24.000324 102.266914 C 10.745114 102.266914 0.000321933 91.522121 0.000321933 78.266912 L 0.000321933 23.996074 C 0.000321933 10.746073 10.745114 0.00128073 24.000324 0.00128073 Z M 24.000324 0.00128073 " stroke="#ffffff" stroke-width="4" stroke-opacity="1" stroke-miterlimit="4"/></g></g><g clip-path="url(#928e582897)"><g clip-path="url(#b9b16c547a)"><g transform="matrix(1, 0, 0, 1, 62, 149)"><g clip-path="url(#438a95572c)"><g clip-path="url(#ef2ca492bd)"><g clip-path="url(#7958159d72)"><path fill="#234fd7" d="M 0.847656 0.511719 L 77.554688 0.511719 L 77.554688 77.214844 L 0.847656 77.214844 Z M 0.847656 0.511719 " fill-opacity="1" fill-rule="nonzero"/></g></g></g></g></g></g><g clip-path="url(#82cac33cff)"><g clip-path="url(#347a04c3e6)"><path stroke-linecap="butt" transform="matrix(0.75, 0, 0, 0.75, 62.848824, 149.510746)" fill="none" stroke-linejoin="miter" d="M 23.998445 0.00129728 L 78.269283 0.00129728 C 91.519284 0.00129728 102.264077 10.74609 102.264077 23.996091 L 102.264077 78.266928 C 102.264077 91.522138 91.519284 102.26693 78.269283 102.26693 L 23.998445 102.26693 C 10.743236 102.26693 -0.00155651 91.522138 -0.00155651 78.266928 L -0.00155651 23.996091 C -0.00155651 10.74609 10.743236 0.00129728 23.998445 0.00129728 Z M 23.998445 0.00129728 " stroke="#ffffff" stroke-width="4" stroke-opacity="1" stroke-miterlimit="4"/></g></g><g clip-path="url(#cf8ccb0642)"><g clip-path="url(#76808b1121)"><g transform="matrix(1, 0, 0, 1, 75, 164)"><g clip-path="url(#12eba5e844)"><g clip-path="url(#9c564306ae)"><g clip-path="url(#a297f41184)"><path fill="#ffffff" d="M -1.492188 -2.292969 L 53.882812 -2.292969 L 53.882812 50.019531 L -1.492188 50.019531 Z M -1.492188 -2.292969 " fill-opacity="1" fill-rule="nonzero"/></g></g></g></g></g></g><g transform="matrix(1, 0, 0, 1, 165, 173)"><g clip-path="url(#53689bf2be)"><g fill="#ffffff" fill-opacity="1"><g transform="translate(0.615521, 30.731999)"><g><path d="M 2.078125 -28.65625 L 10.96875 -28.65625 C 13.65625 -28.65625 15.796875 -28.082031 17.390625 -26.9375 C 18.992188 -25.789062 19.796875 -23.929688 19.796875 -21.359375 C 19.796875 -18.484375 18.601562 -16.4375 16.21875 -15.21875 C 20.289062 -14.5 22.328125 -12.085938 22.328125 -7.984375 C 22.328125 -5.578125 21.492188 -3.644531 19.828125 -2.1875 C 18.160156 -0.726562 15.867188 0 12.953125 0 L 2.078125 0 Z M 8.609375 -17.4375 L 9.140625 -17.4375 C 10.597656 -17.4375 11.6875 -17.691406 12.40625 -18.203125 C 13.125 -18.710938 13.484375 -19.546875 13.484375 -20.703125 C 13.484375 -22.648438 12.035156 -23.625 9.140625 -23.625 L 8.609375 -23.625 Z M 8.609375 -5.03125 L 10.65625 -5.03125 C 13.851562 -5.03125 15.453125 -6.097656 15.453125 -8.234375 C 15.453125 -9.503906 15.050781 -10.414062 14.25 -10.96875 C 13.457031 -11.53125 12.257812 -11.8125 10.65625 -11.8125 L 8.609375 -11.8125 Z M 8.609375 -5.03125 "/></g></g></g><g fill="#ffffff" fill-opacity="1"><g transform="translate(26.483312, 30.731999)"><g><path d="M 8.609375 -28.65625 L 8.609375 -5.734375 L 18.484375 -5.734375 L 18.484375 0 L 2.078125 0 L 2.078125 -28.65625 Z M 8.609375 -28.65625 "/></g></g></g><g fill="#ffffff" fill-opacity="1"><g transform="translate(48.844296, 30.731999)"><g><path d="M 24.109375 -28.65625 L 24.109375 -10.171875 C 24.109375 -6.648438 23.15625 -3.988281 21.25 -2.1875 C 19.351562 -0.382812 16.578125 0.515625 12.921875 0.515625 C 9.265625 0.515625 6.484375 -0.382812 4.578125 -2.1875 C 2.679688 -3.988281 1.734375 -6.648438 1.734375 -10.171875 L 1.734375 -28.65625 L 8.265625 -28.65625 L 8.265625 -12.09375 C 8.265625 -9.769531 8.628906 -8.15625 9.359375 -7.25 C 10.085938 -6.351562 11.273438 -5.90625 12.921875 -5.90625 C 14.566406 -5.90625 15.753906 -6.351562 16.484375 -7.25 C 17.210938 -8.15625 17.578125 -9.769531 17.578125 -12.09375 L 17.578125 -28.65625 Z M 24.109375 -28.65625 "/></g></g></g><g fill="#ffffff" fill-opacity="1"><g transform="translate(77.420318, 30.731999)"><g><path d="M 18.484375 -28.65625 L 18.484375 -22.921875 L 8.609375 -22.921875 L 8.609375 -17.234375 L 18.0625 -17.234375 L 18.0625 -11.5 L 8.609375 -11.5 L 8.609375 -5.734375 L 18.484375 -5.734375 L 18.484375 0 L 2.078125 0 L 2.078125 -28.65625 Z M 18.484375 -28.65625 "/></g></g></g><g fill="#ffffff" fill-opacity="1"><g transform="translate(100.302119, 30.731999)"><g><path d="M 0.28125 -22.921875 L 0.28125 -28.65625 L 20.421875 -28.65625 L 20.421875 -22.921875 L 13.609375 -22.921875 L 13.609375 0 L 7.078125 0 L 7.078125 -22.921875 Z M 0.28125 -22.921875 "/></g></g></g><g fill="#ffffff" fill-opacity="1"><g transform="translate(123.739448, 30.731999)"><g><path d="M 16.640625 -28.65625 L 28.203125 0 L 21.1875 0 L 19.0625 -5.734375 L 8.15625 -5.734375 L 6.046875 0 L -0.96875 0 L 10.59375 -28.65625 Z M 16.84375 -11.46875 L 13.65625 -19.796875 L 13.578125 -19.796875 L 10.390625 -11.46875 Z M 16.84375 -11.46875 "/></g></g></g><g fill="#ffffff" fill-opacity="1"><g transform="translate(153.704306, 30.731999)"><g><path d="M 2.078125 -28.65625 L 10.96875 -28.65625 C 13.65625 -28.65625 15.796875 -28.082031 17.390625 -26.9375 C 18.992188 -25.789062 19.796875 -23.929688 19.796875 -21.359375 C 19.796875 -18.484375 18.601562 -16.4375 16.21875 -15.21875 C 20.289062 -14.5 22.328125 -12.085938 22.328125 -7.984375 C 22.328125 -5.578125 21.492188 -3.644531 19.828125 -2.1875 C 18.160156 -0.726562 15.867188 0 12.953125 0 L 2.078125 0 Z M 8.609375 -17.4375 L 9.140625 -17.4375 C 10.597656 -17.4375 11.6875 -17.691406 12.40625 -18.203125 C 13.125 -18.710938 13.484375 -19.546875 13.484375 -20.703125 C 13.484375 -22.648438 12.035156 -23.625 9.140625 -23.625 L 8.609375 -23.625 Z M 8.609375 -5.03125 L 10.65625 -5.03125 C 13.851562 -5.03125 15.453125 -6.097656 15.453125 -8.234375 C 15.453125 -9.503906 15.050781 -10.414062 14.25 -10.96875 C 13.457031 -11.53125 12.257812 -11.8125 10.65625 -11.8125 L 8.609375 -11.8125 Z M 8.609375 -5.03125 "/></g></g></g></g></g></svg>