<svg xmlns="http://www.w3.org/2000/svg" xmlns:xlink="http://www.w3.org/1999/xlink" width="512" zoomAndPan="magnify" viewBox="0 0 375 374.999986" height="512" preserveAspectRatio="xMidYMid meet" version="1.0"><defs><g/><clipPath id="95a87c3a81"><path d="M 54.75 157.785156 L 131.457031 157.785156 L 131.457031 234.488281 L 54.75 234.488281 Z M 54.75 157.785156 " clip-rule="nonzero"/></clipPath><clipPath id="4fd3e3f410"><path d="M 72.75 157.785156 L 113.457031 157.785156 C 123.398438 157.785156 131.457031 165.84375 131.457031 175.785156 L 131.457031 216.488281 C 131.457031 226.429688 123.398438 234.488281 113.457031 234.488281 L 72.75 234.488281 C 62.808594 234.488281 54.75 226.429688 54.75 216.488281 L 54.75 175.785156 C 54.75 165.84375 62.808594 157.785156 72.75 157.785156 Z M 72.75 157.785156 " clip-rule="nonzero"/></clipPath><clipPath id="cb28d4f917"><path d="M 0.75 0.785156 L 77.457031 0.785156 L 77.457031 77.488281 L 0.75 77.488281 Z M 0.75 0.785156 " clip-rule="nonzero"/></clipPath><clipPath id="532b0ef194"><path d="M 18.75 0.785156 L 59.457031 0.785156 C 69.398438 0.785156 77.457031 8.84375 77.457031 18.785156 L 77.457031 59.488281 C 77.457031 69.429688 69.398438 77.488281 59.457031 77.488281 L 18.75 77.488281 C 8.808594 77.488281 0.75 69.429688 0.75 59.488281 L 0.75 18.785156 C 0.75 8.84375 8.808594 0.785156 18.75 0.785156 Z M 18.75 0.785156 " clip-rule="nonzero"/></clipPath><clipPath id="052460cfe6"><rect x="0" width="78" y="0" height="78"/></clipPath><clipPath id="38e6717b8d"><path d="M 54.75 157.785156 L 131.25 157.785156 L 131.25 234.285156 L 54.75 234.285156 Z M 54.75 157.785156 " clip-rule="nonzero"/></clipPath><clipPath id="d01f9c11e9"><path d="M 72.75 157.785156 L 113.449219 157.785156 C 123.390625 157.785156 131.449219 165.84375 131.449219 175.78125 L 131.449219 216.484375 C 131.449219 226.425781 123.390625 234.484375 113.449219 234.484375 L 72.75 234.484375 C 62.808594 234.484375 54.75 226.425781 54.75 216.484375 L 54.75 175.78125 C 54.75 165.84375 62.808594 157.785156 72.75 157.785156 Z M 72.75 157.785156 " clip-rule="nonzero"/></clipPath><clipPath id="f08af9881d"><path d="M 58.878906 153.71875 L 135.585938 153.71875 L 135.585938 230.421875 L 58.878906 230.421875 Z M 58.878906 153.71875 " clip-rule="nonzero"/></clipPath><clipPath id="40bf4898b5"><path d="M 76.878906 153.71875 L 117.585938 153.71875 C 127.527344 153.71875 135.585938 161.777344 135.585938 171.71875 L 135.585938 212.421875 C 135.585938 222.363281 127.527344 230.421875 117.585938 230.421875 L 76.878906 230.421875 C 66.941406 230.421875 58.878906 222.363281 58.878906 212.421875 L 58.878906 171.71875 C 58.878906 161.777344 66.941406 153.71875 76.878906 153.71875 Z M 76.878906 153.71875 " clip-rule="nonzero"/></clipPath><clipPath id="3c32348ba7"><path d="M 0.878906 0.71875 L 77.585938 0.71875 L 77.585938 77.421875 L 0.878906 77.421875 Z M 0.878906 0.71875 " clip-rule="nonzero"/></clipPath><clipPath id="f6d250dcf5"><path d="M 18.878906 0.71875 L 59.585938 0.71875 C 69.527344 0.71875 77.585938 8.777344 77.585938 18.71875 L 77.585938 59.421875 C 77.585938 69.363281 69.527344 77.421875 59.585938 77.421875 L 18.878906 77.421875 C 8.941406 77.421875 0.878906 69.363281 0.878906 59.421875 L 0.878906 18.71875 C 0.878906 8.777344 8.941406 0.71875 18.878906 0.71875 Z M 18.878906 0.71875 " clip-rule="nonzero"/></clipPath><clipPath id="bdb2c38afa"><rect x="0" width="78" y="0" height="78"/></clipPath><clipPath id="d0b0f158c4"><path d="M 58.878906 153.71875 L 135.378906 153.71875 L 135.378906 230.21875 L 58.878906 230.21875 Z M 58.878906 153.71875 " clip-rule="nonzero"/></clipPath><clipPath id="ea39cbea33"><path d="M 76.878906 153.71875 L 117.582031 153.71875 C 127.523438 153.71875 135.578125 161.777344 135.578125 171.714844 L 135.578125 212.417969 C 135.578125 222.359375 127.523438 230.417969 117.582031 230.417969 L 76.878906 230.417969 C 66.9375 230.417969 58.878906 222.359375 58.878906 212.417969 L 58.878906 171.714844 C 58.878906 161.777344 66.9375 153.71875 76.878906 153.71875 Z M 76.878906 153.71875 " clip-rule="nonzero"/></clipPath><clipPath id="b178d4a19a"><path d="M 62.871094 149.511719 L 139.574219 149.511719 L 139.574219 226.214844 L 62.871094 226.214844 Z M 62.871094 149.511719 " clip-rule="nonzero"/></clipPath><clipPath id="542aec697c"><path d="M 80.871094 149.511719 L 121.574219 149.511719 C 131.515625 149.511719 139.574219 157.570312 139.574219 167.511719 L 139.574219 208.214844 C 139.574219 218.15625 131.515625 226.214844 121.574219 226.214844 L 80.871094 226.214844 C 70.929688 226.214844 62.871094 218.15625 62.871094 208.214844 L 62.871094 167.511719 C 62.871094 157.570312 70.929688 149.511719 80.871094 149.511719 Z M 80.871094 149.511719 " clip-rule="nonzero"/></clipPath><clipPath id="8aa7f143f6"><path d="M 0.871094 0.511719 L 77.574219 0.511719 L 77.574219 77.214844 L 0.871094 77.214844 Z M 0.871094 0.511719 " clip-rule="nonzero"/></clipPath><clipPath id="f0ab27c51f"><path d="M 18.871094 0.511719 L 59.574219 0.511719 C 69.515625 0.511719 77.574219 8.570312 77.574219 18.511719 L 77.574219 59.214844 C 77.574219 69.15625 69.515625 77.214844 59.574219 77.214844 L 18.871094 77.214844 C 8.929688 77.214844 0.871094 69.15625 0.871094 59.214844 L 0.871094 18.511719 C 0.871094 8.570312 8.929688 0.511719 18.871094 0.511719 Z M 18.871094 0.511719 " clip-rule="nonzero"/></clipPath><clipPath id="c3ee05a1c8"><rect x="0" width="78" y="0" height="78"/></clipPath><clipPath id="998cba87e1"><path d="M 62.871094 149.511719 L 139.371094 149.511719 L 139.371094 226.011719 L 62.871094 226.011719 Z M 62.871094 149.511719 " clip-rule="nonzero"/></clipPath><clipPath id="6598516cc9"><path d="M 80.867188 149.511719 L 121.570312 149.511719 C 131.511719 149.511719 139.570312 157.570312 139.570312 167.507812 L 139.570312 208.210938 C 139.570312 218.152344 131.511719 226.210938 121.570312 226.210938 L 80.867188 226.210938 C 70.929688 226.210938 62.871094 218.152344 62.871094 208.210938 L 62.871094 167.507812 C 62.871094 157.570312 70.929688 149.511719 80.867188 149.511719 Z M 80.867188 149.511719 " clip-rule="nonzero"/></clipPath><clipPath id="dff2ac46ad"><path d="M 75.164062 164.363281 L 127.269531 164.363281 L 127.269531 214.019531 L 75.164062 214.019531 Z M 75.164062 164.363281 " clip-rule="nonzero"/></clipPath><clipPath id="3b76aaf9e2"><path d="M 119.992188 177.964844 C 119.0625 179.242188 118.800781 180.886719 119.285156 182.386719 C 119.773438 183.886719 120.949219 185.066406 122.449219 185.554688 L 122.453125 185.554688 C 126.023438 186.71875 127.980469 190.550781 126.824219 194.125 L 125.367188 198.628906 C 124.8125 200.34375 123.597656 201.765625 121.996094 202.585938 C 120.390625 203.402344 118.527344 203.550781 116.8125 202.992188 L 116.59375 202.921875 C 115.140625 202.449219 113.550781 202.699219 112.316406 203.597656 C 111.082031 204.492188 110.351562 205.925781 110.351562 207.453125 C 110.351562 211.078125 107.414062 214.019531 103.789062 214.019531 L 98.660156 214.019531 C 95.035156 214.019531 92.09375 211.078125 92.09375 207.453125 C 92.09375 205.925781 91.363281 204.492188 90.128906 203.597656 C 88.894531 202.699219 87.304688 202.449219 85.851562 202.921875 L 85.632812 202.992188 C 83.921875 203.550781 82.054688 203.402344 80.453125 202.585938 C 78.847656 201.765625 77.632812 200.34375 77.078125 198.628906 L 75.621094 194.125 C 74.464844 190.550781 76.421875 186.71875 79.992188 185.554688 L 79.996094 185.554688 C 81.496094 185.066406 82.671875 183.886719 83.160156 182.386719 C 83.644531 180.886719 83.382812 179.242188 82.453125 177.964844 C 80.242188 174.933594 80.910156 170.6875 83.941406 168.476562 L 87.734375 165.710938 C 89.191406 164.648438 91.007812 164.210938 92.789062 164.488281 C 94.566406 164.765625 96.164062 165.742188 97.222656 167.195312 C 98.15625 168.472656 99.640625 169.230469 101.222656 169.230469 C 102.804688 169.230469 104.292969 168.472656 105.222656 167.195312 C 106.285156 165.742188 107.878906 164.765625 109.660156 164.488281 C 111.4375 164.210938 113.253906 164.648438 114.710938 165.710938 L 118.507812 168.476562 C 121.535156 170.6875 122.203125 174.933594 119.992188 177.964844 Z M 119.992188 177.964844 " clip-rule="nonzero"/></clipPath><clipPath id="28a4086c32"><path d="M 0.164062 0.363281 L 52.269531 0.363281 L 52.269531 50.019531 L 0.164062 50.019531 Z M 0.164062 0.363281 " clip-rule="nonzero"/></clipPath><clipPath id="df70d95aac"><path d="M 44.992188 13.964844 C 44.0625 15.242188 43.800781 16.886719 44.285156 18.386719 C 44.773438 19.886719 45.949219 21.066406 47.449219 21.554688 L 47.453125 21.554688 C 51.023438 22.71875 52.980469 26.550781 51.824219 30.125 L 50.367188 34.628906 C 49.8125 36.34375 48.597656 37.765625 46.996094 38.585938 C 45.390625 39.402344 43.527344 39.550781 41.8125 38.992188 L 41.59375 38.921875 C 40.140625 38.449219 38.550781 38.699219 37.316406 39.597656 C 36.082031 40.492188 35.351562 41.925781 35.351562 43.453125 C 35.351562 47.078125 32.414062 50.019531 28.789062 50.019531 L 23.660156 50.019531 C 20.035156 50.019531 17.09375 47.078125 17.09375 43.453125 C 17.09375 41.925781 16.363281 40.492188 15.128906 39.597656 C 13.894531 38.699219 12.304688 38.449219 10.851562 38.921875 L 10.632812 38.992188 C 8.921875 39.550781 7.054688 39.402344 5.453125 38.585938 C 3.847656 37.765625 2.632812 36.34375 2.078125 34.628906 L 0.621094 30.125 C -0.535156 26.550781 1.421875 22.71875 4.992188 21.554688 L 4.996094 21.554688 C 6.496094 21.066406 7.671875 19.886719 8.160156 18.386719 C 8.644531 16.886719 8.382812 15.242188 7.453125 13.964844 C 5.242188 10.933594 5.910156 6.6875 8.941406 4.476562 L 12.734375 1.710938 C 14.191406 0.648438 16.007812 0.210938 17.789062 0.488281 C 19.566406 0.765625 21.164062 1.742188 22.222656 3.195312 C 23.15625 4.472656 24.640625 5.230469 26.222656 5.230469 C 27.804688 5.230469 29.292969 4.472656 30.222656 3.195312 C 31.285156 1.742188 32.878906 0.765625 34.660156 0.488281 C 36.4375 0.210938 38.253906 0.648438 39.710938 1.710938 L 43.507812 4.476562 C 46.535156 6.6875 47.203125 10.933594 44.992188 13.964844 Z M 44.992188 13.964844 " clip-rule="nonzero"/></clipPath><clipPath id="6c57aeda56"><rect x="0" width="53" y="0" height="51"/></clipPath><clipPath id="2feb2556f4"><rect x="0" width="180" y="0" height="44"/></clipPath></defs><g clip-path="url(#95a87c3a81)"><g clip-path="url(#4fd3e3f410)"><g transform="matrix(1, 0, 0, 1, 54, 157)"><g clip-path="url(#052460cfe6)"><g clip-path="url(#cb28d4f917)"><g clip-path="url(#532b0ef194)"><path fill="#234fd7" d="M 0.75 0.785156 L 77.457031 0.785156 L 77.457031 77.488281 L 0.75 77.488281 Z M 0.75 0.785156 " fill-opacity="1" fill-rule="nonzero"/></g></g></g></g></g></g><g clip-path="url(#38e6717b8d)"><g clip-path="url(#d01f9c11e9)"><path stroke-linecap="butt" transform="matrix(0.75, 0, 0, 0.75, 54.750003, 157.783816)" fill="none" stroke-linejoin="miter" d="M 23.999998 0.00178655 L 78.265628 0.00178655 C 91.520837 0.00178655 102.26563 10.746579 102.26563 23.99658 L 102.26563 78.267418 C 102.26563 91.522627 91.520837 102.26742 78.265628 102.26742 L 23.999998 102.26742 C 10.744789 102.26742 -0.00000356633 91.522627 -0.00000356633 78.267418 L -0.00000356633 23.99658 C -0.00000356633 10.746579 10.744789 0.00178655 23.999998 0.00178655 Z M 23.999998 0.00178655 " stroke="#000000" stroke-width="4" stroke-opacity="1" stroke-miterlimit="4"/></g></g><g clip-path="url(#f08af9881d)"><g clip-path="url(#40bf4898b5)"><g transform="matrix(1, 0, 0, 1, 58, 153)"><g clip-path="url(#bdb2c38afa)"><g clip-path="url(#3c32348ba7)"><g clip-path="url(#f6d250dcf5)"><path fill="#234fd7" d="M 0.878906 0.71875 L 77.585938 0.71875 L 77.585938 77.421875 L 0.878906 77.421875 Z M 0.878906 0.71875 " fill-opacity="1" fill-rule="nonzero"/></g></g></g></g></g></g><g clip-path="url(#d0b0f158c4)"><g clip-path="url(#ea39cbea33)"><path stroke-linecap="butt" transform="matrix(0.75, 0, 0, 0.75, 58.88069, 153.717761)" fill="none" stroke-linejoin="miter" d="M 23.997623 0.00131913 L 78.268461 0.00131913 C 91.52367 0.00131913 102.263254 10.746112 102.263254 23.996113 L 102.263254 78.26695 C 102.263254 91.52216 91.52367 102.266952 78.268461 102.266952 L 23.997623 102.266952 C 10.742414 102.266952 -0.0023788 91.52216 -0.0023788 78.26695 L -0.0023788 23.996113 C -0.0023788 10.746112 10.742414 0.00131913 23.997623 0.00131913 Z M 23.997623 0.00131913 " stroke="#000000" stroke-width="4" stroke-opacity="1" stroke-miterlimit="4"/></g></g><g clip-path="url(#b178d4a19a)"><g clip-path="url(#542aec697c)"><g transform="matrix(1, 0, 0, 1, 62, 149)"><g clip-path="url(#c3ee05a1c8)"><g clip-path="url(#8aa7f143f6)"><g clip-path="url(#f0ab27c51f)"><path fill="#234fd7" d="M 0.871094 0.511719 L 77.574219 0.511719 L 77.574219 77.214844 L 0.871094 77.214844 Z M 0.871094 0.511719 " fill-opacity="1" fill-rule="nonzero"/></g></g></g></g></g></g><g clip-path="url(#998cba87e1)"><g clip-path="url(#6598516cc9)"><path stroke-linecap="butt" transform="matrix(0.75, 0, 0, 0.75, 62.870378, 149.510731)" fill="none" stroke-linejoin="miter" d="M 23.995748 0.00131648 L 78.266585 0.00131648 C 91.521795 0.00131648 102.266587 10.746109 102.266587 23.99611 L 102.266587 78.266948 C 102.266587 91.522157 91.521795 102.26695 78.266585 102.26695 L 23.995748 102.26695 C 10.745747 102.26695 0.000954289 91.522157 0.000954289 78.266948 L 0.000954289 23.99611 C 0.000954289 10.746109 10.745747 0.00131648 23.995748 0.00131648 Z M 23.995748 0.00131648 " stroke="#000000" stroke-width="4" stroke-opacity="1" stroke-miterlimit="4"/></g></g><g clip-path="url(#dff2ac46ad)"><g clip-path="url(#3b76aaf9e2)"><g transform="matrix(1, 0, 0, 1, 75, 164)"><g clip-path="url(#6c57aeda56)"><g clip-path="url(#28a4086c32)"><g clip-path="url(#df70d95aac)"><path fill="#ffffff" d="M -1.46875 -2.292969 L 53.902344 -2.292969 L 53.902344 50.019531 L -1.46875 50.019531 Z M -1.46875 -2.292969 " fill-opacity="1" fill-rule="nonzero"/></g></g></g></g></g></g><g transform="matrix(1, 0, 0, 1, 165, 173)"><g clip-path="url(#2feb2556f4)"><g fill="#000000" fill-opacity="1"><g transform="translate(0.615521, 30.732013)"><g><path d="M 2.078125 -28.65625 L 10.96875 -28.65625 C 13.65625 -28.65625 15.796875 -28.082031 17.390625 -26.9375 C 18.992188 -25.789062 19.796875 -23.929688 19.796875 -21.359375 C 19.796875 -18.484375 18.601562 -16.4375 16.21875 -15.21875 C 20.289062 -14.5 22.328125 -12.085938 22.328125 -7.984375 C 22.328125 -5.578125 21.492188 -3.644531 19.828125 -2.1875 C 18.160156 -0.726562 15.867188 0 12.953125 0 L 2.078125 0 Z M 8.609375 -17.4375 L 9.140625 -17.4375 C 10.597656 -17.4375 11.6875 -17.691406 12.40625 -18.203125 C 13.125 -18.710938 13.484375 -19.546875 13.484375 -20.703125 C 13.484375 -22.648438 12.035156 -23.625 9.140625 -23.625 L 8.609375 -23.625 Z M 8.609375 -5.03125 L 10.65625 -5.03125 C 13.851562 -5.03125 15.453125 -6.097656 15.453125 -8.234375 C 15.453125 -9.503906 15.050781 -10.414062 14.25 -10.96875 C 13.457031 -11.53125 12.257812 -11.8125 10.65625 -11.8125 L 8.609375 -11.8125 Z M 8.609375 -5.03125 "/></g></g></g><g fill="#000000" fill-opacity="1"><g transform="translate(26.483312, 30.732013)"><g><path d="M 8.609375 -28.65625 L 8.609375 -5.734375 L 18.484375 -5.734375 L 18.484375 0 L 2.078125 0 L 2.078125 -28.65625 Z M 8.609375 -28.65625 "/></g></g></g><g fill="#000000" fill-opacity="1"><g transform="translate(48.844296, 30.732013)"><g><path d="M 24.109375 -28.65625 L 24.109375 -10.171875 C 24.109375 -6.648438 23.15625 -3.988281 21.25 -2.1875 C 19.351562 -0.382812 16.578125 0.515625 12.921875 0.515625 C 9.265625 0.515625 6.484375 -0.382812 4.578125 -2.1875 C 2.679688 -3.988281 1.734375 -6.648438 1.734375 -10.171875 L 1.734375 -28.65625 L 8.265625 -28.65625 L 8.265625 -12.09375 C 8.265625 -9.769531 8.628906 -8.15625 9.359375 -7.25 C 10.085938 -6.351562 11.273438 -5.90625 12.921875 -5.90625 C 14.566406 -5.90625 15.753906 -6.351562 16.484375 -7.25 C 17.210938 -8.15625 17.578125 -9.769531 17.578125 -12.09375 L 17.578125 -28.65625 Z M 24.109375 -28.65625 "/></g></g></g><g fill="#000000" fill-opacity="1"><g transform="translate(77.420318, 30.732013)"><g><path d="M 18.484375 -28.65625 L 18.484375 -22.921875 L 8.609375 -22.921875 L 8.609375 -17.234375 L 18.0625 -17.234375 L 18.0625 -11.5 L 8.609375 -11.5 L 8.609375 -5.734375 L 18.484375 -5.734375 L 18.484375 0 L 2.078125 0 L 2.078125 -28.65625 Z M 18.484375 -28.65625 "/></g></g></g><g fill="#000000" fill-opacity="1"><g transform="translate(100.302119, 30.732013)"><g><path d="M 0.28125 -22.921875 L 0.28125 -28.65625 L 20.421875 -28.65625 L 20.421875 -22.921875 L 13.609375 -22.921875 L 13.609375 0 L 7.078125 0 L 7.078125 -22.921875 Z M 0.28125 -22.921875 "/></g></g></g><g fill="#000000" fill-opacity="1"><g transform="translate(123.739448, 30.732013)"><g><path d="M 16.640625 -28.65625 L 28.203125 0 L 21.1875 0 L 19.0625 -5.734375 L 8.15625 -5.734375 L 6.046875 0 L -0.96875 0 L 10.59375 -28.65625 Z M 16.84375 -11.46875 L 13.65625 -19.796875 L 13.578125 -19.796875 L 10.390625 -11.46875 Z M 16.84375 -11.46875 "/></g></g></g><g fill="#000000" fill-opacity="1"><g transform="translate(153.704306, 30.732013)"><g><path d="M 2.078125 -28.65625 L 10.96875 -28.65625 C 13.65625 -28.65625 15.796875 -28.082031 17.390625 -26.9375 C 18.992188 -25.789062 19.796875 -23.929688 19.796875 -21.359375 C 19.796875 -18.484375 18.601562 -16.4375 16.21875 -15.21875 C 20.289062 -14.5 22.328125 -12.085938 22.328125 -7.984375 C 22.328125 -5.578125 21.492188 -3.644531 19.828125 -2.1875 C 18.160156 -0.726562 15.867188 0 12.953125 0 L 2.078125 0 Z M 8.609375 -17.4375 L 9.140625 -17.4375 C 10.597656 -17.4375 11.6875 -17.691406 12.40625 -18.203125 C 13.125 -18.710938 13.484375 -19.546875 13.484375 -20.703125 C 13.484375 -22.648438 12.035156 -23.625 9.140625 -23.625 L 8.609375 -23.625 Z M 8.609375 -5.03125 L 10.65625 -5.03125 C 13.851562 -5.03125 15.453125 -6.097656 15.453125 -8.234375 C 15.453125 -9.503906 15.050781 -10.414062 14.25 -10.96875 C 13.457031 -11.53125 12.257812 -11.8125 10.65625 -11.8125 L 8.609375 -11.8125 Z M 8.609375 -5.03125 "/></g></g></g></g></g></svg>